<svg xmlns="http://www.w3.org/2000/svg" viewBox="0 0 188.5 148.24"><defs><style>.cls-1{fill:#fff;}.cls-2{fill:#e27bb1;}.cls-3{fill:#6bbd45;}</style></defs><g id="Layer_2" data-name="Layer 2"><g id="Layer_1-2" data-name="Layer 1"><path class="cls-1" d="M119.65,148.24a49.09,49.09,0,0,1-33.07-12.8c-.58.3-1.16.58-1.73.85A56.15,56.15,0,0,1,61,141.61,56.89,56.89,0,0,1,9.57,108.88C3.08,94.94-.72,72,.11,51.87c1.06-25.51,9-43,22.44-49.26A29,29,0,0,1,34.87,0C50.49,0,66.69,10.53,77.54,19.37a147.69,147.69,0,0,1,29.12,31.77c13.89-5.67,30.33-9.09,44.11-9.09,15.88,0,27.39,4.54,33.27,13.15,13.08,19.17-6.14,49.78-12.34,58.71a120.34,120.34,0,0,1-18.13,20.81,67,67,0,0,1-6.32,5,48.72,48.72,0,0,1-27.59,8.55Z"/><path class="cls-2" d="M99.23,50.14a2.33,2.33,0,0,0-1,1.32s0,0,0,0h-.07l0,0h-.23l-.33,0h0q-.34-.06-.69-.15a15.18,15.18,0,0,1-1.57-.52l-.21-.08h0l-.65-.3c-.31-.15-.63-.31-.94-.48s-.38-.22-.58-.32A61.44,61.44,0,0,0,84.2,46c-4.91-1.66-10.24-3-15.46-2.69a18.72,18.72,0,0,0-7.67,1.91,19.76,19.76,0,0,0-5.55,4.62c-6,6.86-9.65,15.86-12.32,24.46-.5,1.59-.9,3.2-1.49,4.77-.15.41-.31.82-.48,1.22l-.16.35c-.12.26-.23.52-.36.78A29,29,0,0,1,39,84.51a17.34,17.34,0,0,1-4.43,5c-4.11,2.87-8.61,2.17-13.16.26a43.12,43.12,0,0,1-6.65-3.6c-.83-.54-1.64-1.09-2.44-1.67-.32-.22-.63-.46-.94-.69l-.13-.09-.1-.08,0,0-.09-.07-.55-.45a2.83,2.83,0,0,0-2.23-.68c-5-28.59-2.42-66.06,16.85-75C46.56-2.65,81.73,25.79,99.23,50.14Z"/><path class="cls-2" d="M98.45,51.42l-.13,0S98.37,51.37,98.45,51.42Z"/><path class="cls-2" d="M82.36,130.14a50.65,50.65,0,0,1-67.3-24.52,86.15,86.15,0,0,1-5.53-17,53.54,53.54,0,0,0,5.77,3.67c4.89,2.7,10.61,4.93,16.28,3.9,9-1.63,13.94-11.48,16.12-19.46a69.1,69.1,0,0,1,8.78-19.88,26.79,26.79,0,0,1,4.68-5.6,11.14,11.14,0,0,1,2.67-1.81A6.11,6.11,0,0,1,65.07,49c.6-.19,1.22-.32,1.84-.45a9.74,9.74,0,0,1,1.4-.16c.67-.05,1.34-.06,2-.05a27.42,27.42,0,0,1,3.59.28,50.9,50.9,0,0,1,7.8,1.87c1.12.35,2.23.74,3.33,1.15l1.41.55.6.24.5.21c1,.4,1.91.81,2.83,1.29,2.93,1.52,7,3.74,10.27,2a4.62,4.62,0,0,0,1.58-1.35,71.36,71.36,0,0,1,4.64,8.3A50.65,50.65,0,0,1,82.36,130.14Z"/><path class="cls-3" d="M166.82,109.32a113.49,113.49,0,0,1-17.18,19.74,59.87,59.87,0,0,1-5.73,4.52A43,43,0,0,1,93.39,64c.64-.5,1.31-1,2-1.45,19.61-13.4,70.35-24.74,83.75-5.13C187.59,69.81,179.14,91.59,166.82,109.32Z"/><path class="cls-1" d="M98.26,51.46h0Z"/><path class="cls-1" d="M101.58,87.83c-6.53,5-13.73,6.48-18.7,0a14.68,14.68,0,0,1-2.83-6.52A42.67,42.67,0,0,1,93.39,64a14.85,14.85,0,0,1,13.12,5.79C111.48,76.32,108.1,82.86,101.58,87.83Z"/><path class="cls-1" d="M166.82,109.32a113.49,113.49,0,0,1-17.18,19.74,14.75,14.75,0,0,1-7.09-3.86c-5.87-5.73-3.49-12.69,2.24-18.56s12.64-8.42,18.51-2.69A14.73,14.73,0,0,1,166.82,109.32Z"/><circle class="cls-1" cx="149.53" cy="76.85" r="15.28"/><circle class="cls-1" cx="110.91" cy="117.27" r="16.55"/></g></g></svg>